PathFileType	4	(X/Y/Z)	./resultDataOpenSim/trcMotMarkerGrf/sub10/qtm-15-03.trc
DataRate	CameraRate	NumFrames	NumMarkers	Units	OrigDataRate	OrigDataStartFrame	OrigNumFrames
250.000000	250.000000	14	24	m	250.000000	1	487
Frame#	Time	L.Toe.Tip			R.Toe.Tip			L.Ankle.Lat			R.Ankle.Lat			L.Ankle.Med			R.Ankle.Med			L.Heel			R.Heel			L.Knee.Lat			R.Knee.Lat			L.Knee.Med			R.Knee.Med			L.Thigh.Upper			R.Thigh.Upper			L.ASIS			R.ASIS			V.Sacral			L.Acromium			R.Acromium			C7			L.Elbow			R.Elbow			L.Wrist.Lat			R.Wrist.Lat
		X1	Y1	Z1	X2	Y2	Z2	X3	Y3	Z3	X4	Y4	Z4	X5	Y5	Z5	X6	Y6	Z6	X7	Y7	Z7	X8	Y8	Z8	X9	Y9	Z9	X10	Y10	Z10	X11	Y11	Z11	X12	Y12	Z12	X13	Y13	Z13	X14	Y14	Z14	X15	Y15	Z15	X16	Y16	Z16	X17	Y17	Z17	X18	Y18	Z18	X19	Y19	Z19	X20	Y20	Z20	X21	Y21	Z21	X22	Y22	Z22	X23	Y23	Z23	X24	Y24	Z24

1	0	-1.4338378	0.03906502	-0.12252651	-1.0318597	0.06417109	0.02982491	-1.5726188	0.073854569	-0.13815313	-1.1742632	0.072638415	0.041835063	-1.5569791	0.096121462	-0.055084884	-1.1429652	0.10076886	-0.035933285	NaN	NaN	NaN	-1.2117702	0.042856856	-0.017900659	-1.4654468	0.44574403	-0.18672231	-1.1580892	0.47119524	0.071702189	-1.4470557	0.42346561	-0.068093057	-1.1294534	0.48244476	-0.052478159	-1.3652157	0.82694676	-0.25870231	-1.299075	0.8569874	0.11787832	-1.278337	0.92691368	-0.20796273	-1.23851	0.9461123	0.033642013	-1.4500126	0.96611097	-0.054860795	-1.2432425	1.3982914	-0.24135723	-1.2807271	1.4085995	0.076669188	-1.3387114	1.4433463	-0.097094117	-1.2876307	1.0523224	-0.30711133	-1.4570051	1.1120429	0.14240938	-1.0757238	0.91738063	-0.29251629	-1.3798056	0.90069589	0.24299342
2	0.004	-1.4335191	0.039005817	-0.12269011	-1.0143643	0.065194618	0.027031727	-1.5717874	0.073056798	-0.13669934	-1.1566807	0.070597767	0.040446835	-1.5507382	0.097190761	-0.056764938	-1.1268648	0.09997755	-0.037372631	NaN	NaN	NaN	-1.1941694	0.040416759	-0.019287989	-1.4630246	0.44553637	-0.18621818	-1.1518285	0.46971747	0.071732349	-1.4451301	0.42316721	-0.067561673	-1.1245079	0.48110817	-0.052612875	-1.3610611	0.82598084	-0.25869072	-1.2935952	0.85561747	0.11773843	-1.2742962	0.92573533	-0.20811697	-1.2331645	0.94499338	0.033526796	-1.4452965	0.96424878	-0.054149044	-1.2382889	1.3969164	-0.24166412	-1.2765237	1.4072556	0.076410965	-1.3339879	1.4420409	-0.097468732	-1.2812625	1.0503902	-0.30688626	-1.4527633	1.1110275	0.14204117	-1.0675664	0.91840432	-0.29121276	-1.3771046	0.89964121	0.24349023
3	0.008	-1.433446	0.038901593	-0.12262341	-0.99704172	0.066310568	0.024160886	-1.571216	0.072647786	-0.13555314	-1.139225	0.068782788	0.039050487	-1.5468824	0.097881042	-0.057564508	-1.1108945	0.09930227	-0.038800517	NaN	NaN	NaN	-1.1766892	0.03816281	-0.020427944	-1.4608808	0.44529533	-0.18575507	-1.1458716	0.46810856	0.071679959	-1.4431048	0.42285449	-0.067094192	-1.1195524	0.47969315	-0.05279293	-1.35687	0.82499679	-0.25868637	-1.2879779	0.85428454	0.11764867	-1.270223	0.92454303	-0.20829034	-1.227786	0.94387566	0.033413535	-1.4405825	0.96236536	-0.053441388	-1.2333084	1.3955268	-0.24197185	-1.2720441	1.4058856	0.076153136	-1.3292297	1.4407389	-0.097790757	-1.2748776	1.0485284	-0.30675274	-1.4484873	1.1099927	0.14168037	-1.0593793	0.91941374	-0.28986167	-1.3745202	0.89856141	0.24397185
4	0.012	-1.4335618	0.03877727	-0.12240967	-0.97999725	0.067566906	0.021171786	-1.5709622	0.07272579	-0.13482986	-1.122033	0.067243224	0.037633314	-1.5454567	0.098195465	-0.057496522	-1.0951388	0.09881898	-0.040209974	NaN	NaN	NaN	-1.1593804	0.036211753	-0.021129684	-1.4591017	0.44500241	-0.1853632	-1.1403193	0.46630562	0.071509471	-1.4409202	0.42250912	-0.066727712	-1.1145908	0.47815598	-0.053035445	-1.3526676	0.82396277	-0.25874332	-1.2821156	0.85299379	0.11763493	-1.2661112	0.92332201	-0.20848964	-1.2223437	0.94275119	0.033313933	-1.4358276	0.96044683	-0.052721013	-1.2282789	1.3941159	-0.24227409	-1.2672573	1.404471	0.075877646	-1.3244312	1.439438	-0.098091087	-1.2683871	1.0467666	-0.30668001	-1.4441519	1.1089224	0.14133255	-1.0512256	0.92039658	-0.28849253	-1.3720454	0.89745176	0.24442972
5	0.016	-1.4336827	0.038673518	-0.1222405	-0.96329635	0.068981898	0.018080818	-1.5709531	0.073212808	-0.13455061	-1.1052157	0.065949815	0.036209572	-1.5449856	0.098380361	-0.057128383	-1.0796724	0.098557956	-0.041594062	NaN	NaN	NaN	-1.1422917	0.034583877	-0.02144726	-1.4575	0.44467447	-0.18505974	-1.13502	0.46434419	0.071264728	-1.4385814	0.42211507	-0.06645646	-1.1096367	0.47649626	-0.053339309	-1.348498	0.82287944	-0.25889398	-1.2760251	0.85172261	0.1176826	-1.2619794	0.92206705	-0.20870374	-1.2168349	0.94161609	0.033239767	-1.4309693	0.95848564	-0.051967123	-1.2232059	1.3926888	-0.24255793	-1.26228	1.4030174	0.075570947	-1.3196141	1.4381354	-0.098431084	-1.2617787	1.0450847	-0.30660013	-1.4397541	1.1078073	0.14099413	-1.0431971	0.92135112	-0.28715906	-1.3696076	0.89631203	0.24486228
6	0.02	-1.4337336	0.038595965	-0.12217458	-0.94695626	0.07057896	0.014941856	-1.571122	0.074038445	-0.13474784	-1.0888019	0.064903713	0.03482483	-1.5443386	0.098623155	-0.056869595	-1.0645406	0.098516286	-0.042946806	NaN	NaN	NaN	-1.1254872	0.033227301	-0.021667894	-1.455736	0.44435044	-0.18484884	-1.1296092	0.4623391	0.071051245	-1.4361075	0.42167847	-0.066260314	-1.1046948	0.47473539	-0.053708552	-1.3443485	0.8217831	-0.25907839	-1.2698638	0.85043636	0.11775014	-1.2578168	0.92078991	-0.20890747	-1.2112729	0.94047481	0.033185236	-1.4259481	0.95647305	-0.051167599	-1.2181044	1.3912518	-0.2428137	-1.2572053	1.4015488	0.075253481	-1.3147865	1.4368362	-0.098811691	-1.2551179	1.043448	-0.30648283	-1.4352928	1.1066331	0.14064858	-1.0353069	0.92228929	-0.2858674	-1.3671415	0.8951373	0.24527429
7	0.024	-1.4337348	0.038534786	-0.12217471	-0.93099391	0.07238112	0.011812086	-1.5714078	0.0750953	-0.13539393	-1.0727872	0.064114606	0.033520219	-1.5433315	0.098961621	-0.056796694	-1.0497754	0.09866942	-0.044266023	NaN	NaN	NaN	-1.1090587	0.032091239	-0.022032048	-1.4535912	0.44405386	-0.18472599	-1.1236505	0.4604347	0.070976697	-1.4335004	0.42123109	-0.06613606	-1.0997713	0.47289864	-0.054149629	-1.3401779	0.82069128	-0.25919554	-1.2637459	0.84912195	0.11782146	-1.2535692	0.91951652	-0.2090762	-1.2056669	0.93933198	0.03312936	-1.4207875	0.95442511	-0.050369196	-1.2129827	1.3898077	-0.24303748	-1.2521222	1.4000861	0.074962597	-1.3099368	1.4355515	-0.099170318	-1.2484483	1.041841	-0.30631333	-1.4307606	1.1053723	0.14027069	-1.0275215	0.92322193	-0.28459278	-1.3645988	0.89392939	0.24567124
8	0.028	-1.4337211	0.038484477	-0.12219568	-0.91547698	0.074393252	0.0087181436	-1.57177	0.076241318	-0.13645853	-1.0571673	0.063575857	0.032300432	-1.5423358	0.099349129	-0.056818157	-1.0354194	0.098982934	-0.045552217	NaN	NaN	NaN	-1.093104	0.03116414	-0.022583881	-1.4510787	0.44377837	-0.18468202	-1.1169153	0.4587226	0.071077649	-1.4307757	0.42079505	-0.066086533	-1.0948738	0.47100776	-0.054660052	-1.3359698	0.81960362	-0.25919747	-1.257603	0.84780715	0.1179183	-1.2491895	0.9182682	-0.20920489	-1.2000125	0.93818927	0.033057821	-1.4156587	0.9523989	-0.049723922	-1.2078437	1.3883589	-0.24322616	-1.2471027	1.3986324	0.074717321	-1.3050531	1.4342842	-0.09945199	-1.2418147	1.040256	-0.30609125	-1.4261474	1.1039915	0.1398327	-1.0198237	0.92414845	-0.28332063	-1.3619482	0.89269533	0.2460532
9	0.032	-1.4337104	0.038443292	-0.12221375	-0.90049676	0.076607639	0.0056678607	-1.5722307	0.077429072	-0.13799961	-1.0419522	0.063272126	0.031141913	-1.5416555	0.099751011	-0.056846524	-1.0215267	0.099420811	-0.046802526	NaN	NaN	NaN	-1.0776796	0.030439554	-0.023239101	-1.4483132	0.44350358	-0.18470191	-1.1096507	0.45717855	0.071265831	-1.4279656	0.42035992	-0.066104286	-1.0900005	0.46908633	-0.055231118	-1.3317304	0.81855858	-0.25912194	-1.2513638	0.84651541	0.1180432	-1.2446835	0.91704983	-0.20931284	-1.1943033	0.93705033	0.032974385	-1.4107189	0.95043907	-0.049352361	-1.2026907	1.3869149	-0.24337601	-1.2421038	1.3971844	0.074512218	-1.3001403	1.4330262	-0.09966227	-1.2352728	1.0386869	-0.30583391	-1.4214419	1.1024714	0.13932019	-1.0122294	0.92505951	-0.2820624	-1.3591739	0.89144666	0.2464162
10	0.036	-1.4337038	0.038409386	-0.12222597	-0.8860738	0.079025358	0.0026961268	-1.5727394	0.078641339	-0.13985509	-1.0271711	0.06318341	0.030030781	-1.5412608	0.10017984	-0.056861197	-1.008147	0.099949867	-0.048014793	NaN	NaN	NaN	-1.0627945	0.029887442	-0.023889157	-1.4453834	0.44321056	-0.18476103	-1.1024308	0.45569952	0.071382482	-1.4251031	0.41990868	-0.066166697	-1.0851364	0.46716791	-0.055854518	-1.3274687	0.81763035	-0.25905336	-1.2450766	0.84523035	0.11817132	-1.2400917	0.91585857	-0.20942944	-1.1885432	0.93592286	0.032889901	-1.4058898	0.94852353	-0.049163927	-1.1975232	1.3854904	-0.24348089	-1.2369911	1.3957511	0.074331495	-1.2952125	1.4317739	-0.099842391	-1.2288362	1.0371423	-0.30556353	-1.4166283	1.1008241	0.13875798	-1.0047668	0.92594743	-0.28083911	-1.356287	0.89020561	0.24675813
11	0.04	-1.4336964	0.03837923	-0.12223709	-0.87212988	0.081661703	-0.00013200798	-1.5730783	0.079755397	-0.14147376	-1.0128552	0.063283225	0.028981711	-1.5409577	0.1006607	-0.056879656	-0.99530365	0.10054046	-0.049196245	NaN	NaN	NaN	-1.0484471	0.029465157	-0.024468337	-1.4423331	0.44288875	-0.18482707	-1.095639	0.45421518	0.071335735	-1.4222712	0.41944783	-0.066231529	-1.0802554	0.46529108	-0.056523827	-1.3231853	0.81686167	-0.25904549	-1.2387884	0.84393028	0.11829418	-1.2354442	0.91469405	-0.2095786	-1.1827424	0.9348138	0.032808697	-1.4009677	0.9466134	-0.048963866	-1.1923349	1.3840965	-0.24353178	-1.2316931	1.394348	0.074165087	-1.2902775	1.430534	-0.1000151	-1.2224843	1.035644	-0.30530277	-1.4116948	1.0991128	0.13822085	-0.99743518	0.92681483	-0.27964885	-1.3533559	0.88900048	0.24708203
12	0.044	-1.4336837	0.038349708	-0.12225011	-0.85859115	0.084512356	-0.0027725713	-1.5730709	0.08066219	-0.14242374	-0.9990312	0.063536558	0.028012746	-1.5405949	0.10119693	-0.056921057	-0.98299026	0.10116576	-0.050356136	NaN	NaN	NaN	-1.0346485	0.029136049	-0.02496387	-1.4391993	0.44254784	-0.18486676	-1.0892475	0.45274194	0.071137779	-1.419596	0.41900224	-0.066255737	-1.075335	0.46348924	-0.05723297	-1.3188674	0.81622994	-0.25907654	-1.2325025	0.8426106	0.11841103	-1.230748	0.91355788	-0.20977325	-1.1769107	0.93372419	0.032726461	-1.3958736	0.9447241	-0.048671459	-1.1871172	1.3827384	-0.24352336	-1.2262823	1.3929769	0.074015727	-1.2853336	1.4293096	-0.10017192	-1.2162003	1.0342103	-0.30506545	-1.4066765	1.0974746	0.1377886	-0.99020016	0.92767191	-0.2784654	-1.3504844	0.88784466	0.24739226
13	0.048	-1.4336627	0.038320963	-0.12226493	-0.84551704	0.087490753	-0.0052425329	-1.5727583	0.081410067	-0.14278446	-0.985738	0.063899159	0.027113492	-1.5401472	0.10176918	-0.05698975	-0.97118849	0.10180274	-0.05149383	NaN	NaN	NaN	-1.0214202	0.028880915	-0.025397373	-1.4360558	0.44222549	-0.18484549	-1.0830404	0.45134441	0.070828426	-1.4170577	0.41858736	-0.066241011	-1.0703636	0.46179106	-0.057970686	-1.3144985	0.8156772	-0.25907984	-1.2262116	0.84127058	0.11850741	-1.225998	0.91245231	-0.21001377	-1.1710547	0.93265198	0.03263564	-1.3906655	0.94290389	-0.04832665	-1.1818643	1.3814218	-0.24346032	-1.2208895	1.3916299	0.073893172	-1.2803761	1.4280975	-0.10029241	-1.2099799	1.0328483	-0.30485157	-1.4017213	1.0961058	0.13739894	-0.98303864	0.92852602	-0.27726981	-1.347698	0.88671998	0.24768495
14	0.052	-1.4336302	0.038295402	-0.12228125	-0.83309407	0.090415771	-0.0076140058	-1.5722942	0.082129709	-0.14289453	-0.97302936	0.064319158	0.026249595	-1.5397163	0.10235961	-0.057072175	-0.95989353	0.10243212	-0.052602851	NaN	NaN	NaN	-1.0087866	0.02869081	-0.025805961	-1.4329772	0.44196766	-0.1847384	-1.0768311	0.45008253	0.070432046	-1.4143983	0.41818668	-0.066244523	-1.0653299	0.46022434	-0.058717599	-1.3100721	0.81515987	-0.25900687	-1.2198813	0.83991341	0.11857381	-1.2211819	0.91138296	-0.21028769	-1.1651796	0.93159803	0.032530719	-1.3854109	0.94118004	-0.04796942	-1.1765863	1.3801556	-0.24335858	-1.2155799	1.3903105	0.073809422	-1.2754024	1.4269008	-0.10036264	-1.2038227	1.0315585	-0.30465535	-1.3970918	1.0951306	0.13664313	-0.97596076	0.92937532	-0.27606439	-1.3448657	0.88559934	0.24794721
